<?xml version="1.0" encoding="UTF-8"?>
<svg width="512px" height="512px" viewBox="0 0 512 512" version="1.1" xmlns="http://www.w3.org/2000/svg" xmlns:xlink="http://www.w3.org/1999/xlink">
    <!-- Generator: Sketch 50.2 (55047) - http://www.bohemiancoding.com/sketch -->
    <title>icon</title>
    <desc>Created with Sketch.</desc>
    <defs></defs>
    <g id="icon" stroke="none" stroke-width="1" fill="none" fill-rule="evenodd">
        <g>
            <circle id="Oval-Copy" fill="#E04275" cx="256" cy="256" r="256"></circle>
            <g id="Group" transform="translate(73.000000, 171.000000)" fill="#FFFFFF" fill-rule="nonzero">
                <circle id="Oval" cx="133" cy="101" r="13"></circle>
                <path d="M110.99026,100.050419 C110.99026,86.6268374 121.948052,75.6439071 135.340909,75.6439071 L187.694805,75.6439071 C191.753247,75.6439071 195,72.3897055 195,68.3219535 C195,64.2542016 191.753247,61 187.694805,61 L135.340909,61 C116.672078,61 100.844156,74.4235815 97.1915584,92.3216902 L77.3051948,92.3216902 C73.2467532,92.3216902 70,95.5758918 70,99.6436437 C70,103.711396 73.2467532,106.965597 77.3051948,106.965597 L103.685065,106.965597 C107.743506,107.372372 110.99026,104.118171 110.99026,100.050419 Z" id="Shape"></path>
                <path d="M281.006667,0 C281.006667,0 281.006667,0 281.006667,0 C281.006667,0 281.006667,0 281.006667,0 L84.9933333,0 C45.14,0 11.7933333,27.2488038 2.84666667,64.2583732 C2.03333333,65.4784689 1.62666667,66.6985646 1.62666667,68.3253589 C1.62666667,68.7320574 1.62666667,69.138756 1.62666667,69.138756 C0.406666667,74.4258373 0,79.7129187 0,85 C0,131.770335 38.2266667,170 84.9933333,170 L281.006667,170 C281.006667,170 281.006667,170 281.006667,170 C281.006667,170 281.006667,170 281.006667,170 C327.773333,170 366,131.770335 366,85 C366,38.2296651 327.773333,0 281.006667,0 Z M210.653333,85 C210.653333,46.3636364 242.373333,14.6411483 281.006667,14.6411483 C319.64,14.6411483 351.36,46.3636364 351.36,85 C351.36,123.636364 319.64,155.358852 281.006667,155.358852 C241.966667,155.358852 210.653333,123.636364 210.653333,85 Z M84.9933333,155.358852 C67.1,155.358852 50.8333333,148.851675 38.6333333,137.870813 L85.4,137.870813 C89.4666667,137.870813 92.72,134.617225 92.72,130.550239 C92.72,126.483254 89.4666667,123.229665 85.4,123.229665 L26.0266667,123.229665 C26.0266667,123.229665 26.0266667,123.229665 26.0266667,123.229665 C22.7733333,118.349282 19.9266667,112.655502 18.3,106.961722 L41.8866667,106.961722 C45.9533333,106.961722 49.2066667,103.708134 49.2066667,99.6411483 C49.2066667,95.5741627 45.9533333,92.3205742 41.8866667,92.3205742 L15.0466667,92.3205742 C15.0466667,92.3205742 15.0466667,92.3205742 15.0466667,92.3205742 C14.64,89.8803828 14.64,87.4401914 14.64,84.5933014 C14.64,81.3397129 15.0466667,78.0861244 15.4533333,75.2392344 L81.74,75.2392344 C85.8066667,75.2392344 89.06,71.9856459 89.06,67.9186603 C89.06,63.8516746 85.8066667,60.5980861 81.74,60.5980861 L18.7066667,60.5980861 C20.74,55.3110048 23.18,50.0239234 26.4333333,45.1435407 L111.426667,45.1435407 C115.493333,45.1435407 118.746667,41.8899522 118.746667,37.8229665 C118.746667,33.7559809 115.493333,30.5023923 111.426667,30.5023923 L39.4466667,30.5023923 C51.6466667,19.9282297 67.5066667,13.8277512 84.9933333,13.8277512 L233.833333,13.8277512 C226.92,18.3014354 220.82,23.9952153 215.533333,30.5023923 L156.16,30.9090909 C152.093333,30.9090909 148.84,34.1626794 148.84,38.2296651 C148.84,42.2966507 152.093333,45.5502392 156.16,45.5502392 C156.16,45.5502392 156.16,45.5502392 156.16,45.5502392 L205.773333,45.1435407 C199.673333,56.937799 196.013333,70.3588517 196.013333,84.1866029 C196.013333,86.6267943 196.013333,88.6602871 196.42,91.1004785 L163.886667,91.1004785 C159.82,91.1004785 156.566667,94.354067 156.566667,98.4210526 C156.566667,111.842105 145.586667,122.822967 132.166667,122.822967 L112.646667,122.822967 C108.58,122.822967 105.326667,126.076555 105.326667,130.143541 C105.326667,134.210526 108.58,137.464115 112.646667,137.464115 L132.166667,137.464115 C150.873333,137.464115 166.733333,124.043062 170.393333,106.148325 L198.86,106.148325 C200.486667,112.248804 202.52,117.942584 205.366667,123.229665 L174.46,123.229665 C170.393333,123.229665 167.14,126.483254 167.14,130.550239 C167.14,134.617225 170.393333,137.870813 174.46,137.870813 L214.72,137.870813 C220.006667,144.784689 226.513333,150.478469 233.833333,155.358852 L84.9933333,155.358852 Z" id="Shape"></path>
                <path d="M281,24 C247.246667,24 220,51.2466667 220,85 C220,118.753333 247.246667,146 281,146 C314.753333,146 342,118.753333 342,85 C342,51.2466667 314.753333,24 281,24 Z M281,131.36 C255.38,131.36 234.64,110.62 234.64,85 C234.64,59.38 255.38,38.64 281,38.64 C306.62,38.64 327.766667,59.38 327.766667,85 C327.766667,110.62 306.62,131.36 281,131.36 Z" id="Shape"></path>
                <path d="M281.5,54 C264.318182,54 250,67.9090909 250,85.5 C250,102.681818 263.909091,117 281.5,117 C298.681818,117 313,103.090909 313,85.5 C313,68.3181818 298.681818,54 281.5,54 Z M281.5,102.272727 C272.090909,102.272727 264.727273,94.9090909 264.727273,85.5 C264.727273,76.0909091 272.090909,68.7272727 281.5,68.7272727 C290.909091,68.7272727 298.272727,76.0909091 298.272727,85.5 C298.272727,94.9090909 290.909091,102.272727 281.5,102.272727 Z" id="Shape"></path>
            </g>
        </g>
    </g>
</svg>